<svg width="176" height="187" viewBox="0 0 176 187" fill="none" xmlns="http://www.w3.org/2000/svg">
<path opacity="0.3" d="M0.475904 145.718C11.636 162.288 27.9618 174.849 47.0561 181.556C66.1505 188.263 87.0074 188.763 106.564 182.983C126.122 177.202 143.348 165.446 155.716 149.44C168.083 133.434 174.939 114.022 175.277 94.0532C175.616 74.0847 169.418 54.612 157.595 38.4945C145.772 22.3769 128.946 10.4635 109.588 4.50356C90.2297 -1.45638 69.3591 -1.14888 50.0405 5.3809C30.7219 11.9107 13.9732 24.3187 2.25349 40.7832L31.9949 60.9684C39.2368 50.7946 49.5863 43.1273 61.5238 39.0924C73.4612 35.0575 86.3577 34.8675 98.3197 38.5503C110.282 42.2331 120.679 49.5947 127.985 59.5541C135.29 69.5136 139.12 81.5463 138.911 93.8854C138.702 106.224 134.465 118.22 126.823 128.11C119.181 138.001 108.536 145.265 96.4514 148.837C84.3666 152.409 71.4785 152.1 59.6796 147.956C47.8807 143.811 37.7926 136.049 30.8965 125.81L0.475904 145.718Z" fill="#FEFFFF"/>
</svg>
